<svg xmlns="http://www.w3.org/2000/svg" width="1410" height="1185" viewBox="-300 -390 940 790" font-family="serif">
<title>大观园复原平面图 · 500m × 500m</title>
<defs>
<marker id="ah" viewBox="0 0 10 10" refX="7" refY="5" markerWidth="5.5" markerHeight="5.5" orient="auto-start-reverse">
  <path d="M0,1 L9,5 L0,9 z" fill="#c2562f"/></marker>
<marker id="ahw" viewBox="0 0 10 10" refX="7" refY="5" markerWidth="5" markerHeight="5" orient="auto-start-reverse">
  <path d="M0,1 L9,5 L0,9 z" fill="#6fa3ac"/></marker>
<pattern id="hillhatch" width="9" height="9" patternTransform="rotate(35)" patternUnits="userSpaceOnUse">
  <line x1="0" y1="0" x2="0" y2="9" stroke="#a98f61" stroke-width="1.1" opacity="0.5"/></pattern>
</defs>
<rect x="-300" y="-390" width="940" height="790" fill="#f7f2e7"/>
<g fill="#33291d">
<text x="-250" y="-352" font-size="26" letter-spacing="3">大观园复原平面图</text>
<text x="-250" y="-330" font-size="10.5" fill="#7a6e5c">画布 500 m × 500 m(25 ha)· 上 = 北,下 = 南(svg y = z)· 1 svg 单位 = 1 m</text>
<text x="-250" y="-315" font-size="10.5" fill="#7a6e5c">数据源 docs/plan/garden.plan.json · 裁决源 04-conflicts.md · 取证 01 / 02 / 03 篇</text>
<text x="-250" y="-300" font-size="10" fill="#7a6e5c">尺度双路会合:三里半周长义 × 营造尺 → 504 m;童力群 372 亩 → 498 m(差 1.2%),可调 437–564 m</text>
</g>
<g transform="translate(-268,-215)">
<line x1="0" y1="26" x2="0" y2="-20" stroke="#c2562f" stroke-width="2" marker-end="url(#ah)"/>
<circle cx="0" cy="0" r="27" fill="none" stroke="#c9bda2" stroke-width="0.8"/>
<text x="0" y="-24" font-size="12" text-anchor="middle" fill="#33291d">北</text>
<text x="0" y="37" font-size="10" text-anchor="middle" fill="#7a6e5c">南</text>
</g>
<!-- 外墙 -->
<polygon points="-236.0,244.0 -244.0,150.0 -230.0,40.0 -244.0,-80.0 -248.0,-186.0 -232.0,-246.0 -108.0,-250.0 20.0,-238.0 140.0,-248.0 238.0,-240.0 248.0,-128.0 230.0,-6.0 246.0,118.0 234.0,206.0 158.0,246.0 60.0,250.0 -70.0,246.0 -170.0,250.0 -236.0,244.0" fill="#fdfbf5" stroke="#4a3a26" stroke-width="5" stroke-linejoin="round"/>
<rect x="-250" y="-250" width="500" height="500" fill="none" stroke="#c9bda2" stroke-width="0.8" stroke-dasharray="3 5"/>
<!-- 山 -->
<g><title>翠嶂(入口障景·一带长山,东西向约 210 m;西口入题「曲径通幽处」·东口出接平坦宽阔大路)(高 11 m)</title>
<polygon points="-60.0,206.0 -44.0,190.0 -8.0,184.0 24.0,187.0 52.0,188.0 78.0,196.0 106.0,203.0 134.0,206.0 152.0,212.0 148.0,219.0 120.0,220.0 86.0,219.0 48.0,220.0 6.0,219.0 -30.0,219.0 -54.0,217.0 -60.0,206.0" fill="#dccaa4" fill-opacity="0.85" stroke="#a98f61" stroke-width="1.4"/>
<polygon points="-60.0,206.0 -44.0,190.0 -8.0,184.0 24.0,187.0 52.0,188.0 78.0,196.0 106.0,203.0 134.0,206.0 152.0,212.0 148.0,219.0 120.0,220.0 86.0,219.0 48.0,220.0 6.0,219.0 -30.0,219.0 -54.0,217.0 -60.0,206.0" fill="url(#hillhatch)" stroke="none"/>
</g>
<g><title>大主山(园北主山,支脉穿墙入蘅芜苑)(高 26 m)</title>
<polygon points="-225.0,-200.0 -208.0,-228.0 -170.0,-238.0 -126.0,-236.0 -92.0,-224.0 -70.0,-200.0 -76.0,-176.0 -108.0,-162.0 -152.0,-160.0 -192.0,-168.0 -218.0,-180.0 -225.0,-200.0" fill="#dccaa4" fill-opacity="0.85" stroke="#a98f61" stroke-width="1.4"/>
<polygon points="-225.0,-200.0 -208.0,-228.0 -170.0,-238.0 -126.0,-236.0 -92.0,-224.0 -70.0,-200.0 -76.0,-176.0 -108.0,-162.0 -152.0,-160.0 -192.0,-168.0 -218.0,-180.0 -225.0,-200.0" fill="url(#hillhatch)" stroke="none"/>
</g>
<g><title>青山(潇湘馆与稻香村之间·山怀中露稻香村)(高 14 m)</title>
<polygon points="-185.0,32.0 -170.0,16.0 -140.0,10.0 -112.0,14.0 -95.0,28.0 -100.0,46.0 -128.0,55.0 -158.0,53.0 -178.0,46.0 -185.0,32.0" fill="#dccaa4" fill-opacity="0.85" stroke="#a98f61" stroke-width="1.4"/>
<polygon points="-185.0,32.0 -170.0,16.0 -140.0,10.0 -112.0,14.0 -95.0,28.0 -100.0,46.0 -128.0,55.0 -158.0,53.0 -178.0,46.0 -185.0,32.0" fill="url(#hillhatch)" stroke="none"/>
</g>
<g><title>凸碧山(东部主山·山脊凸碧堂,山坳凹晶馆,山脚栊翠庵)(高 18 m)</title>
<polygon points="145.0,74.0 152.0,52.0 176.0,45.0 204.0,50.0 226.0,68.0 232.0,100.0 224.0,126.0 198.0,140.0 168.0,134.0 150.0,112.0 145.0,74.0" fill="#dccaa4" fill-opacity="0.85" stroke="#a98f61" stroke-width="1.4"/>
<polygon points="145.0,74.0 152.0,52.0 176.0,45.0 204.0,50.0 226.0,68.0 232.0,100.0 224.0,126.0 198.0,140.0 168.0,134.0 150.0,112.0 145.0,74.0" fill="url(#hillhatch)" stroke="none"/>
</g>
<g><title>花溆盘道山(蓼汀花溆石洞之上,盘道可通蘅芜苑)(高 12 m)</title>
<polygon points="-78.0,-152.0 -58.0,-164.0 -30.0,-163.0 -12.0,-152.0 -14.0,-134.0 -36.0,-128.0 -62.0,-131.0 -78.0,-152.0" fill="#dccaa4" fill-opacity="0.85" stroke="#a98f61" stroke-width="1.4"/>
<polygon points="-78.0,-152.0 -58.0,-164.0 -30.0,-163.0 -12.0,-152.0 -14.0,-134.0 -36.0,-128.0 -62.0,-131.0 -78.0,-152.0" fill="url(#hillhatch)" stroke="none"/>
</g>
<g><title>稻香村篱外山坡(土井桔槔·下临分畦列亩)(高 7 m)</title>
<polygon points="-228.0,-8.0 -206.0,-14.0 -186.0,-8.0 -182.0,6.0 -196.0,16.0 -218.0,14.0 -228.0,-8.0" fill="#dccaa4" fill-opacity="0.85" stroke="#a98f61" stroke-width="1.4"/>
<polygon points="-228.0,-8.0 -206.0,-14.0 -186.0,-8.0 -182.0,6.0 -196.0,16.0 -218.0,14.0 -228.0,-8.0" fill="url(#hillhatch)" stroke="none"/>
</g>
<!-- 水 -->
<g><title>主池(中池·荇叶渚—紫菱洲蓼溆—花溆萝港—蘅芜苑岸—藕香榭)(深 2.4 m)</title>
<polygon points="-128.0,-58.0 -108.0,-88.0 -72.0,-100.0 -38.0,-96.0 -6.0,-78.0 26.0,-92.0 66.0,-98.0 104.0,-88.0 132.0,-64.0 138.0,-34.0 108.0,-24.0 70.0,-34.0 30.0,-26.0 -4.0,-42.0 -40.0,-34.0 -78.0,-30.0 -112.0,-34.0 -128.0,-58.0" fill="#b9dde2" stroke="#6fa3ac" stroke-width="1.2" stroke-linejoin="round"/>
</g>
<g><title>南池(沁芳亭桥池·白石为栏环抱池沿)(深 1.3 m)</title>
<polygon points="-40.0,140.0 -30.0,124.0 2.0,120.0 26.0,128.0 32.0,150.0 22.0,170.0 -8.0,176.0 -32.0,166.0 -40.0,140.0" fill="#b9dde2" stroke="#6fa3ac" stroke-width="1.2" stroke-linejoin="round"/>
</g>
<g><title>东池(凹晶溪馆—芦雪广水域·凸碧山下池沿)(深 1.9 m)</title>
<polygon points="130.0,10.0 152.0,0.0 180.0,4.0 198.0,22.0 196.0,44.0 172.0,56.0 142.0,52.0 128.0,34.0 130.0,10.0" fill="#b9dde2" stroke="#6fa3ac" stroke-width="1.2" stroke-linejoin="round"/>
</g>
<g><title>沁芳溪·北段(沁芳闸→蓼汀花溆港洞→主池;干溪 12 m)(深 1.5 m)</title>
<polygon points="197.1,-227.1 190.2,-191.7 177.9,-161.1 158.6,-139.0 128.6,-127.8 97.0,-124.0 60.7,-128.0 23.8,-132.0 -7.4,-125.8 -37.1,-117.1 -50.8,-99.6 -41.2,-92.4 -30.9,-106.9 -4.6,-114.2 24.2,-120.0 59.3,-116.0 97.0,-112.0 131.4,-116.2 165.4,-129.0 188.1,-154.9 201.8,-188.3 208.9,-224.9 197.1,-227.1" fill="#b9dde2" stroke="#6fa3ac" stroke-width="1.2" stroke-linejoin="round"/>
</g>
<g><title>沁芳溪·西段(主池西端→东北山坳→稻香村→西南岔口;干溪 10 m)(深 1.0 m)</title>
<polygon points="-124.5,-52.8 -151.6,-61.0 -179.8,-56.7 -201.7,-41.3 -212.9,-19.1 -212.9,6.8 -204.7,33.8 -192.6,60.0 -181.7,85.7 -173.9,111.1 -171.0,132.7 -161.0,131.3 -164.1,108.9 -172.3,82.3 -183.4,56.0 -195.3,30.2 -203.1,5.2 -203.1,-16.9 -194.3,-34.7 -176.2,-47.3 -152.4,-51.0 -127.5,-43.2 -124.5,-52.8" fill="#b9dde2" stroke="#6fa3ac" stroke-width="1.2" stroke-linejoin="round"/>
</g>
<g><title>沁芳溪·南段(西南岔口→南池·沁芳亭桥→怡红院后合流→南墙东段涵洞出园;干溪 8 m)(深 1.0 m)</title>
<polygon points="-169.3,133.1 -160.1,161.7 -140.3,186.6 -109.3,206.3 -69.9,214.5 -30.8,204.3 -1.9,188.8 11.1,171.6 17.7,149.1 58.1,145.5 91.8,147.5 121.7,149.5 144.3,151.1 159.9,169.7 168.6,197.0 174.5,220.3 171.7,226.8 178.3,229.2 181.5,219.7 175.4,195.0 166.1,166.3 147.7,144.9 122.3,142.5 92.2,140.5 57.9,138.5 14.3,142.9 4.9,168.4 -6.1,183.2 -33.2,197.7 -70.1,207.5 -106.7,199.7 -135.7,181.4 -153.9,158.3 -162.7,130.9 -169.3,133.1" fill="#b9dde2" stroke="#6fa3ac" stroke-width="1.2" stroke-linejoin="round"/>
</g>
<g><title>潇湘馆穿院引泉沟(开沟仅尺许·后院墙下入,盘旋竹下而出)(深 0.3 m)</title>
<polygon points="-138.2,68.6 -118.3,74.5 -104.5,86.3 -102.6,103.9 -108.5,116.7 -107.5,117.3 -101.4,104.1 -103.5,85.7 -117.7,73.5 -137.8,67.4 -138.2,68.6" fill="#b9dde2" stroke="#6fa3ac" stroke-width="1.2" stroke-linejoin="round"/>
</g>
<g font-size="9" fill="#7a5f33" font-style="italic">
<text x="33" y="218" text-anchor="middle">翠嶂 11m</text>
<text x="-148" y="-198" text-anchor="middle">大主山 26m</text>
<text x="-142" y="42" text-anchor="middle">青山 14m</text>
<text x="208" y="118" text-anchor="middle">凸碧山 18m</text>
<text x="-46" y="-154" text-anchor="middle">花溆盘道山 12m</text>
<text x="-170" y="-4" text-anchor="middle">篱外土坡 7m</text>
</g>
<g font-size="9" fill="#2f6b74" font-style="italic">
<text x="-10" y="-56" text-anchor="middle">主池</text>
<text x="16" y="158" text-anchor="middle">南池</text>
<text x="150" y="14" text-anchor="middle">东池</text>
<text x="98" y="-136" text-anchor="middle">沁芳溪·北段</text>
<text x="-198" y="88" text-anchor="middle">沁芳溪·西段</text>
<text x="-95" y="214" text-anchor="middle">沁芳溪·南段</text>
</g>
<!-- 路 -->
<g><title>近门大路(平坦宽阔·翠嶂东麓绕出直达正门;近东南角以一石桥跨沁芳溪出水段)</title><polyline points="55.0,246.0 88.0,240.0 122.0,235.0 150.0,229.0 168.0,219.0 180.0,203.0 184.0,182.0 178.0,160.0 166.0,141.0 152.0,130.0" fill="none" stroke="#b3a68c" stroke-width="2.6" stroke-linecap="round" stroke-linejoin="round" stroke-dasharray="10 6" opacity="0.9"/></g>
<g><title>环园东路</title><polyline points="152.0,130.0 168.0,118.0 184.0,100.0 194.0,72.0 200.0,40.0 204.0,-4.0 202.0,-46.0 196.0,-90.0 188.0,-128.0 194.0,-172.0 198.0,-198.0" fill="none" stroke="#b3a68c" stroke-width="2.6" stroke-linecap="round" stroke-linejoin="round" stroke-dasharray="10 6" opacity="0.9"/></g>
<g><title>环园西路</title><polyline points="-8.0,178.0 -42.0,170.0 -80.0,150.0 -112.0,124.0 -140.0,96.0 -164.0,62.0 -186.0,26.0 -200.0,-14.0 -204.0,-56.0 -212.0,-104.0 -206.0,-150.0" fill="none" stroke="#b3a68c" stroke-width="2.6" stroke-linecap="round" stroke-linejoin="round" stroke-dasharray="10 6" opacity="0.9"/></g>
<g><title>正殿区南向短甬路(牌坊→正殿→大观楼,不与园门相连)</title><polyline points="25.0,-130.0 25.0,-148.0 25.0,-180.0 25.0,-208.0" fill="none" stroke="#b3a68c" stroke-width="2.6" stroke-linecap="round" stroke-linejoin="round" stroke-dasharray="10 6" opacity="0.9"/></g>
<g><title>池沿竹栏路(凹晶溪馆→藕香榭)</title><polyline points="160.0,18.0 136.0,-4.0 112.0,-22.0 86.0,-38.0 70.0,-52.0" fill="none" stroke="#b3a68c" stroke-width="2.6" stroke-linecap="round" stroke-linejoin="round" stroke-dasharray="10 6" opacity="0.9"/></g>
<g><title>嘉荫堂上山盘道(逶迤而上·不过百余步·极平稳的宽路→凸碧山庄)</title><polyline points="120.0,132.0 138.0,128.0 154.0,120.0 162.0,108.0 154.0,94.0 146.0,82.0 154.0,70.0 170.0,62.0 186.0,62.0 198.0,70.0 204.0,82.0 198.0,90.0 190.0,88.0" fill="none" stroke="#b3a68c" stroke-width="2.6" stroke-linecap="round" stroke-linejoin="round" stroke-dasharray="10 6" opacity="0.9"/></g>
<g><title>山上盘道(蓼汀花溆→折带朱栏板桥→蘅芜苑)</title><polyline points="-32.0,-114.0 -48.0,-128.0 -62.0,-142.0 -78.0,-148.0 -100.0,-146.0 -115.0,-142.0" fill="none" stroke="#b3a68c" stroke-width="2.6" stroke-linecap="round" stroke-linejoin="round" stroke-dasharray="10 6" opacity="0.9"/></g>
<g><title>翠烟桥—蜂腰桥(怡红院↔潇湘馆/蘅芜苑)</title><polyline points="112.0,180.0 76.0,172.0 40.0,164.0 4.0,156.0 -30.0,146.0 -62.0,130.0 -92.0,112.0" fill="none" stroke="#b3a68c" stroke-width="2.6" stroke-linecap="round" stroke-linejoin="round" stroke-dasharray="10 6" opacity="0.9"/></g>
<!-- 区域 -->
<g><title>正门 · tier A · confidence high · 标高 0.8 m</title>
<polygon points="21.4,222.4 61.4,222.0 92.6,225.1 95.0,236.5 72.6,243.6 32.6,244.0 15.0,234.1 21.4,222.4" fill="#b8352c" fill-opacity="0.20" stroke="#b8352c" stroke-width="2" stroke-dasharray="none" stroke-linejoin="round"/>
<circle cx="55.0" cy="244.0" r="2.6" fill="#f7f2e7" stroke="#b8352c" stroke-width="0.8"/>
</g>
<g><title>翠嶂(曲径通幽处) · tier C · confidence high · 标高 0.0 m</title>
<polygon points="18.9,184.0 71.9,189.0 76.0,207.8 37.9,219.3 -30.1,220.0 -60.0,203.8 -49.1,184.7 18.9,184.0" fill="#4e7a52" fill-opacity="0.20" stroke="#4e7a52" stroke-width="2" stroke-dasharray="none" stroke-linejoin="round"/>
<circle cx="-40.0" cy="196.0" r="2.6" fill="#f7f2e7" stroke="#4e7a52" stroke-width="0.8"/>
<circle cx="74.0" cy="202.0" r="2.6" fill="#f7f2e7" stroke="#4e7a52" stroke-width="0.8"/>
</g>
<g><title>沁芳亭桥与池 · tier C · confidence high · 标高 0.4 m</title>
<polygon points="37.1,124.7 40.0,156.9 13.4,176.8 -34.1,178.0 -55.0,150.1 -47.4,117.2 0.1,116.0 37.1,124.7" fill="#4e7a52" fill-opacity="0.20" stroke="#4e7a52" stroke-width="2" stroke-dasharray="none" stroke-linejoin="round"/>
<circle cx="-4.0" cy="178.0" r="2.6" fill="#f7f2e7" stroke="#4e7a52" stroke-width="0.8"/>
<circle cx="0.0" cy="120.0" r="2.6" fill="#f7f2e7" stroke="#4e7a52" stroke-width="0.8"/>
</g>
<g><title>潇湘馆(有凤来仪) · tier B · confidence medium · 标高 1.0 m</title>
<polygon points="-65.0,102.2 -87.4,123.7 -127.4,125.0 -145.0,94.8 -138.6,59.3 -98.6,58.0 -67.4,67.4 -65.0,102.2" fill="#2f5d8c" fill-opacity="0.20" stroke="#2f5d8c" stroke-width="2" stroke-dasharray="7 5" stroke-linejoin="round"/>
<circle cx="-100.0" cy="122.0" r="2.6" fill="#f7f2e7" stroke="#2f5d8c" stroke-width="0.8"/>
</g>
<g><title>稻香村(杏帘在望/浣葛山庄) · tier B · confidence medium · 标高 1.2 m</title>
<polygon points="-183.8,-16.7 -217.3,-15.0 -232.0,-53.2 -226.6,-98.3 -193.1,-100.0 -167.0,-88.1 -165.0,-43.9 -183.8,-16.7" fill="#2f5d8c" fill-opacity="0.20" stroke="#2f5d8c" stroke-width="2" stroke-dasharray="7 5" stroke-linejoin="round"/>
<circle cx="-196.0" cy="-18.0" r="2.6" fill="#f7f2e7" stroke="#2f5d8c" stroke-width="0.8"/>
<circle cx="-196.0" cy="-98.0" r="2.6" fill="#f7f2e7" stroke="#2f5d8c" stroke-width="0.8"/>
</g>
<g><title>蘅芜苑(蘅芷清芬) · tier B · confidence high · 标高 2.6 m</title>
<polygon points="-140.2,-125.0 -160.0,-154.2 -152.8,-188.7 -107.8,-190.0 -72.7,-180.9 -70.0,-147.1 -95.2,-126.3 -140.2,-125.0" fill="#2f5d8c" fill-opacity="0.20" stroke="#2f5d8c" stroke-width="2" stroke-dasharray="none" stroke-linejoin="round"/>
<circle cx="-112.0" cy="-127.0" r="2.6" fill="#f7f2e7" stroke="#2f5d8c" stroke-width="0.8"/>
<circle cx="-78.0" cy="-158.0" r="2.6" fill="#f7f2e7" stroke="#2f5d8c" stroke-width="0.8"/>
</g>
<g><title>省亲别墅牌坊与大观楼 · tier A · confidence high · 标高 2.4 m</title>
<polygon points="-40.0,-182.8 -29.6,-233.1 35.4,-235.0 86.1,-221.7 90.0,-172.3 53.6,-141.9 -11.4,-140.0 -40.0,-182.8" fill="#b8352c" fill-opacity="0.20" stroke="#b8352c" stroke-width="2" stroke-dasharray="none" stroke-linejoin="round"/>
<circle cx="25.0" cy="-142.0" r="2.6" fill="#f7f2e7" stroke="#b8352c" stroke-width="0.8"/>
</g>
<g><title>怡红院(红香绿玉/怡红快绿) · tier B · confidence medium · 标高 1.0 m</title>
<polygon points="86.2,154.8 125.2,154.0 155.7,159.3 158.0,179.1 136.2,191.2 97.2,192.0 80.0,174.9 86.2,154.8" fill="#2f5d8c" fill-opacity="0.20" stroke="#2f5d8c" stroke-width="2" stroke-dasharray="7 5" stroke-linejoin="round"/>
<circle cx="112.0" cy="190.0" r="2.6" fill="#f7f2e7" stroke="#2f5d8c" stroke-width="0.8"/>
<circle cx="126.0" cy="158.0" r="2.6" fill="#f7f2e7" stroke="#2f5d8c" stroke-width="0.8"/>
</g>
<g><title>藕香榭 · tier C · confidence high · 标高 0.3 m</title>
<polygon points="71.9,-95.0 93.3,-87.0 95.0,-57.4 79.6,-39.1 52.1,-38.0 40.0,-63.6 44.4,-93.9 71.9,-95.0" fill="#4e7a52" fill-opacity="0.20" stroke="#4e7a52" stroke-width="2" stroke-dasharray="none" stroke-linejoin="round"/>
<circle cx="66.0" cy="-40.0" r="2.6" fill="#f7f2e7" stroke="#4e7a52" stroke-width="0.8"/>
<circle cx="66.0" cy="-93.0" r="2.6" fill="#f7f2e7" stroke="#4e7a52" stroke-width="0.8"/>
</g>
<g><title>紫菱洲(缀锦楼·荇叶渚·蓼溆) · tier B · confidence medium · 标高 0.8 m</title>
<polygon points="-101.7,-113.3 -100.0,-88.3 -116.2,-73.0 -145.2,-72.0 -158.0,-93.6 -153.4,-119.0 -124.4,-120.0 -101.7,-113.3" fill="#2f5d8c" fill-opacity="0.20" stroke="#2f5d8c" stroke-width="2" stroke-dasharray="7 5" stroke-linejoin="round"/>
<circle cx="-126.0" cy="-74.0" r="2.6" fill="#f7f2e7" stroke="#2f5d8c" stroke-width="0.8"/>
</g>
<g><title>秋爽斋(晓翠堂) · tier B · confidence medium · 标高 1.0 m</title>
<polygon points="-25.0,19.6 -44.6,38.8 -79.6,40.0 -95.0,13.0 -89.4,-18.8 -54.4,-20.0 -27.1,-11.6 -25.0,19.6" fill="#2f5d8c" fill-opacity="0.20" stroke="#2f5d8c" stroke-width="2" stroke-dasharray="7 5" stroke-linejoin="round"/>
<circle cx="-58.0" cy="38.0" r="2.6" fill="#f7f2e7" stroke="#2f5d8c" stroke-width="0.8"/>
<circle cx="-32.0" cy="4.0" r="2.6" fill="#f7f2e7" stroke="#2f5d8c" stroke-width="0.8"/>
</g>
<g><title>栊翠庵 · tier B · confidence medium · 标高 2.2 m</title>
<polygon points="218.8,176.9 195.3,178.0 185.0,152.8 188.8,123.1 212.3,122.0 230.6,129.8 232.0,159.0 218.8,176.9" fill="#2f5d8c" fill-opacity="0.20" stroke="#2f5d8c" stroke-width="2" stroke-dasharray="7 5" stroke-linejoin="round"/>
<circle cx="206.0" cy="174.0" r="2.6" fill="#f7f2e7" stroke="#2f5d8c" stroke-width="0.8"/>
</g>
<g><title>凸碧堂凹晶馆 · tier C · confidence high · 标高 8.0 m</title>
<polygon points="164.3,115.0 148.0,61.0 153.9,-2.6 190.9,-5.0 219.8,11.8 222.0,74.2 201.3,112.6 164.3,115.0" fill="#4e7a52" fill-opacity="0.20" stroke="#4e7a52" stroke-width="2" stroke-dasharray="none" stroke-linejoin="round"/>
<circle cx="166.0" cy="4.0" r="2.6" fill="#f7f2e7" stroke="#4e7a52" stroke-width="0.8"/>
<circle cx="186.0" cy="110.0" r="2.6" fill="#f7f2e7" stroke="#4e7a52" stroke-width="0.8"/>
</g>
<g><title>暖香坞蓼风轩 · tier B · confidence high · 标高 0.9 m</title>
<polygon points="145.0,-46.5 150.4,-83.6 183.9,-85.0 210.0,-75.2 212.0,-38.8 193.2,-16.4 159.7,-15.0 145.0,-46.5" fill="#2f5d8c" fill-opacity="0.20" stroke="#2f5d8c" stroke-width="2" stroke-dasharray="none" stroke-linejoin="round"/>
<circle cx="178.0" cy="-20.0" r="2.6" fill="#f7f2e7" stroke="#2f5d8c" stroke-width="0.8"/>
<circle cx="148.0" cy="-22.0" r="2.6" fill="#f7f2e7" stroke="#2f5d8c" stroke-width="0.8"/>
</g>
<g><title>沁芳闸 · tier C · confidence high · 标高 0.5 m</title>
<polygon points="172.6,-237.0 201.6,-238.0 224.3,-230.7 226.0,-203.7 209.8,-187.0 180.8,-186.0 168.0,-209.4 172.6,-237.0" fill="#4e7a52" fill-opacity="0.20" stroke="#4e7a52" stroke-width="2" stroke-dasharray="none" stroke-linejoin="round"/>
<circle cx="196.0" cy="-188.0" r="2.6" fill="#f7f2e7" stroke="#4e7a52" stroke-width="0.8"/>
</g>
<g><title>蓼汀花溆(萝港石洞) · tier C · confidence high · 标高 0.2 m</title>
<polygon points="-29.0,-136.0 -4.9,-130.7 -3.0,-110.9 -20.4,-98.8 -51.4,-98.0 -65.0,-115.1 -60.0,-135.2 -29.0,-136.0" fill="#4e7a52" fill-opacity="0.20" stroke="#4e7a52" stroke-width="2" stroke-dasharray="none" stroke-linejoin="round"/>
<circle cx="-34.0" cy="-100.0" r="2.6" fill="#f7f2e7" stroke="#4e7a52" stroke-width="0.8"/>
<circle cx="-62.0" cy="-124.0" r="2.6" fill="#f7f2e7" stroke="#4e7a52" stroke-width="0.8"/>
</g>
<g><title>芦雪广(芦雪庵) · tier C · confidence medium · 标高 0.4 m</title>
<polygon points="142.6,12.2 144.0,35.0 131.1,49.1 108.1,50.0 98.0,30.2 101.7,6.9 124.7,6.0 142.6,12.2" fill="#4e7a52" fill-opacity="0.20" stroke="#4e7a52" stroke-width="2" stroke-dasharray="7 5" stroke-linejoin="round"/>
<circle cx="122.0" cy="48.0" r="2.6" fill="#f7f2e7" stroke="#4e7a52" stroke-width="0.8"/>
</g>
<g><title>嘉荫堂 · tier C · confidence medium · 标高 1.4 m</title>
<polygon points="145.0,122.4 131.3,135.2 106.8,136.0 96.0,118.0 99.9,96.8 124.4,96.0 143.5,101.6 145.0,122.4" fill="#4e7a52" fill-opacity="0.20" stroke="#4e7a52" stroke-width="2" stroke-dasharray="7 5" stroke-linejoin="round"/>
<circle cx="120.0" cy="132.0" r="2.6" fill="#f7f2e7" stroke="#4e7a52" stroke-width="0.8"/>
</g>
<g><title>花架花圃群(荼蘼架·木香棚·牡丹亭·芍药圃·蔷薇院·芭蕉坞) · tier C · confidence low · 标高 0.6 m</title>
<polygon points="-189.0,-109.4 -223.0,-108.0 -238.0,-140.4 -232.6,-178.6 -198.6,-180.0 -172.0,-169.9 -170.0,-132.5 -189.0,-109.4" fill="#4e7a52" fill-opacity="0.20" stroke="#4e7a52" stroke-width="2" stroke-dasharray="2 4" stroke-linejoin="round"/>
<circle cx="-204.0" cy="-110.0" r="2.6" fill="#f7f2e7" stroke="#4e7a52" stroke-width="0.8"/>
<circle cx="-204.0" cy="-178.0" r="2.6" fill="#f7f2e7" stroke="#4e7a52" stroke-width="0.8"/>
</g>
<!-- 门 -->
<g><title>正门(五间·桶瓦泥鳅脊·白石台矶) · facing south</title>
<rect x="48.5" y="243.5" width="13.0" height="13.0" fill="#f7f2e7" stroke="#b8352c" stroke-width="1.2" transform="rotate(45 55.0 250.0)"/>
<circle cx="55.0" cy="250.0" r="2.9" fill="#b8352c"/>
<text x="55.0" y="284.0" font-size="11.5" text-anchor="middle" fill="#b8352c" stroke="#f7f2e7" stroke-width="2.4" paint-order="stroke" font-weight="bold">正门</text>
</g>
<g><title>后门(北墙东段) · facing north</title>
<rect x="105.5" y="-249.5" width="9.0" height="9.0" fill="#f7f2e7" stroke="#4a3a26" stroke-width="1.2" transform="rotate(45 110.0 -245.0)"/>
<circle cx="110.0" cy="-245.0" r="2.0" fill="#4a3a26"/>
<text x="116.0" y="-259.0" font-size="9" text-anchor="middle" fill="#4a3a26" stroke="#f7f2e7" stroke-width="2.4" paint-order="stroke" font-weight="normal">后门</text>
</g>
<g><title>东便门(通宁国府) · facing east</title>
<rect x="230.5" y="-44.5" width="9.0" height="9.0" fill="#f7f2e7" stroke="#4a3a26" stroke-width="1.2" transform="rotate(45 235.0 -40.0)"/>
<circle cx="235.0" cy="-40.0" r="2.0" fill="#4a3a26"/>
<text x="249.0" y="-37.0" font-size="9" text-anchor="start" fill="#4a3a26" stroke="#f7f2e7" stroke-width="2.4" paint-order="stroke" font-weight="normal">东便门</text>
</g>
<g><title>西角门(通王夫人正房方向) · facing west</title>
<rect x="-241.5" y="-24.5" width="9.0" height="9.0" fill="#f7f2e7" stroke="#4a3a26" stroke-width="1.2" transform="rotate(45 -237.0 -20.0)"/>
<circle cx="-237.0" cy="-20.0" r="2.0" fill="#4a3a26"/>
<text x="-251.0" y="-17.0" font-size="9" text-anchor="end" fill="#4a3a26" stroke="#f7f2e7" stroke-width="2.4" paint-order="stroke" font-weight="normal">西角门</text>
</g>
<g><title>西角门(通贾母房方向) · facing west</title>
<rect x="-236.5" y="55.5" width="9.0" height="9.0" fill="#f7f2e7" stroke="#4a3a26" stroke-width="1.2" transform="rotate(45 -232.0 60.0)"/>
<circle cx="-232.0" cy="60.0" r="2.0" fill="#4a3a26"/>
<text x="-246.0" y="63.0" font-size="9" text-anchor="end" fill="#4a3a26" stroke="#f7f2e7" stroke-width="2.4" paint-order="stroke" font-weight="normal">西角门</text>
</g>
<g><title>聚锦门(西南角) · facing south</title>
<rect x="-204.5" y="242.5" width="9.0" height="9.0" fill="#f7f2e7" stroke="#4a3a26" stroke-width="1.2" transform="rotate(45 -200.0 247.0)"/>
<circle cx="-200.0" cy="247.0" r="2.0" fill="#4a3a26"/>
<text x="-230.0" y="269.0" font-size="9" text-anchor="middle" fill="#4a3a26" stroke="#f7f2e7" stroke-width="2.4" paint-order="stroke" font-weight="normal">聚锦门</text>
</g>
<text x="55" y="292" font-size="9" text-anchor="middle" fill="#7a6e5c">五间 · 桶瓦泥鳅脊 · 白石台矶 · 南墙偏东 · 门内翠嶂全遮视线(十七回)</text>
<g font-size="9" fill="#2f6b74">
<line x1="252" y1="-244" x2="216" y2="-228" stroke="#6fa3ac" stroke-width="2" marker-end="url(#ahw)"/>
<text x="316" y="-250" font-size="9.5" text-anchor="end">外河引水(东北进水)</text>
<line x1="184" y1="236" x2="206" y2="252" stroke="#6fa3ac" stroke-width="2" marker-end="url(#ahw)"/>
<text x="210" y="258" font-size="9.5">墙下涵洞出水(L4 推测)</text>
</g>
<rect x="-252" y="296" width="506" height="84" rx="5" fill="#fffdf7" stroke="#c9bda2" stroke-width="1.2"/>
<text x="-242" y="311" font-size="10" fill="#33291d" letter-spacing="1">七条不可违约束(任何布局调整后须复检 · 出自 04-conflicts.md §四)</text>
<text x="-242.0" y="322.0" font-size="7.6" fill="#7a6e5c">1 缀锦阁在大观楼东、含芳阁在西(十八回,唯一东西向硬标尺)</text>
<text x="-242.0" y="330.8" font-size="7.6" fill="#7a6e5c">2 藕香榭在中轴以东池中,与缀锦阁隔水可闻乐(十八 / 四十回)</text>
<text x="-242.0" y="339.6" font-size="7.6" fill="#7a6e5c">3 凸碧(脊)—凹晶(山下近水)—池沿竹栏—藕香榭 四点连通;嘉荫堂上山 ≤ 百余步缓坡宽路</text>
<text x="-242.0" y="348.4" font-size="7.6" fill="#7a6e5c">4 水系线状五段:外河 → 沁芳闸(东北)→ 洞口 → 东北山坳 → 稻香村 →〔岔口 → 西南〕→ 怡红院后合流 → 墙下出园</text>
<text x="-242.0" y="357.2" font-size="7.6" fill="#7a6e5c">5 翠嶂全遮门内视线,正门内不得望见任何院落或正殿(十七回贾政语)</text>
<text x="-242.0" y="366.0" font-size="7.6" fill="#7a6e5c">6 十七回游线须连续走通且成环(小径入 / 另一边出),至正殿累计路程 ≈ 全程 55%</text>
<text x="-242.0" y="374.8" font-size="7.6" fill="#7a6e5c">7 暖香坞正门朝南,其北为东西向夹道,西门额「穿云 / 度月」,东门外接山坡(五十回)</text>
<!-- 十七回游线 -->
<g><title>十七回游线(小径入·另一边出的环线)</title>
<polyline points="55.0,244.0 30.0,232.0 -2.0,224.0 -28.0,212.0 -40.0,196.0 -24.0,186.0 -6.0,180.0 0.0,164.0 0.0,150.0 -14.0,138.0 -40.0,128.0 -70.0,116.0 -96.0,104.0 -118.0,92.0 -148.0,66.0 -172.0,40.0 -196.0,10.0 -208.0,-22.0 -206.0,-56.0 -200.0,-84.0 -214.0,-120.0 -212.0,-150.0 -196.0,-166.0 -186.0,-150.0 -160.0,-138.0 -124.0,-134.0 -96.0,-142.0 -72.0,-150.0 -60.0,-140.0 -44.0,-124.0 -24.0,-114.0 -8.0,-120.0 6.0,-136.0 16.0,-152.0 24.0,-172.0 24.0,-200.0 40.0,-206.0 62.0,-200.0 86.0,-176.0 110.0,-158.0 140.0,-150.0 168.0,-158.0 190.0,-186.0 198.0,-208.0 204.0,-190.0 210.0,-160.0 206.0,-120.0 200.0,-70.0 204.0,-20.0 210.0,30.0 212.0,90.0 206.0,140.0 190.0,164.0 172.0,178.0 162.0,200.0 152.0,220.0 130.0,232.0 100.0,236.0 75.0,240.0 55.0,244.0" fill="none" stroke="#c2562f" stroke-width="3.4" stroke-linecap="round" stroke-linejoin="round" opacity="0.95"/>
<line x1="-11.4" y1="219.7" x2="-18.6" y2="216.3" stroke="#c2562f" stroke-width="2" marker-end="url(#ah)"/>
<line x1="0.0" y1="161.0" x2="0.0" y2="153.0" stroke="#c2562f" stroke-width="2" marker-end="url(#ah)"/>
<line x1="-103.5" y1="99.9" x2="-110.5" y2="96.1" stroke="#c2562f" stroke-width="2" marker-end="url(#ah)"/>
<line x1="-207.2" y1="-35.0" x2="-206.8" y2="-43.0" stroke="#c2562f" stroke-width="2" marker-end="url(#ah)"/>
<line x1="-193.1" y1="-161.4" x2="-188.9" y2="-154.6" stroke="#c2562f" stroke-width="2" marker-end="url(#ah)"/>
<line x1="-69.1" y1="-147.6" x2="-62.9" y2="-142.4" stroke="#c2562f" stroke-width="2" marker-end="url(#ah)"/>
<line x1="8.9" y1="-140.6" x2="13.1" y2="-147.4" stroke="#c2562f" stroke-width="2" marker-end="url(#ah)"/>
<line x1="71.2" y1="-190.8" x2="76.8" y2="-185.2" stroke="#c2562f" stroke-width="2" marker-end="url(#ah)"/>
<line x1="192.6" y1="-193.2" x2="195.4" y2="-200.8" stroke="#c2562f" stroke-width="2" marker-end="url(#ah)"/>
<line x1="201.7" y1="-49.0" x2="202.3" y2="-41.0" stroke="#c2562f" stroke-width="2" marker-end="url(#ah)"/>
<line x1="184.2" y1="168.5" x2="177.8" y2="173.5" stroke="#c2562f" stroke-width="2" marker-end="url(#ah)"/>
<line x1="91.4" y1="237.4" x2="83.6" y2="238.6" stroke="#c2562f" stroke-width="2" marker-end="url(#ah)"/>
</g>
<g text-anchor="middle">
<text x="8.7" y="226.6" font-size="11" fill="#33291d" stroke="#f7f2e7" stroke-width="2.6" paint-order="stroke" stroke-linejoin="round">正门</text>
<text x="8.7" y="236.6" font-size="7.5" fill="#b8352c" stroke="#f7f2e7" stroke-width="2.2" paint-order="stroke">A级·信度高</text>
<text x="37.6" y="187.4" font-size="11" fill="#33291d" stroke="#f7f2e7" stroke-width="2.6" paint-order="stroke" stroke-linejoin="round">翠嶂</text>
<text x="37.6" y="197.4" font-size="7.5" fill="#4e7a52" stroke="#f7f2e7" stroke-width="2.2" paint-order="stroke">C级·信度高</text>
<text x="-41.8" y="150.0" font-size="11" fill="#33291d" stroke="#f7f2e7" stroke-width="2.6" paint-order="stroke" stroke-linejoin="round">沁芳亭桥与池</text>
<text x="-41.8" y="160.0" font-size="7.5" fill="#4e7a52" stroke="#f7f2e7" stroke-width="2.2" paint-order="stroke">C级·信度高</text>
<text x="-111.2" y="86.4" font-size="11" fill="#33291d" stroke="#f7f2e7" stroke-width="2.6" paint-order="stroke" stroke-linejoin="round">潇湘馆</text>
<text x="-111.2" y="96.4" font-size="7.5" fill="#2f5d8c" stroke="#f7f2e7" stroke-width="2.2" paint-order="stroke">B级·信度中</text>
<text x="-184.7" y="-58.9" font-size="11" fill="#33291d" stroke="#f7f2e7" stroke-width="2.6" paint-order="stroke" stroke-linejoin="round">稻香村</text>
<text x="-184.7" y="-48.9" font-size="7.5" fill="#2f5d8c" stroke="#f7f2e7" stroke-width="2.2" paint-order="stroke">B级·信度中</text>
<text x="-119.3" y="-154.6" font-size="11" fill="#33291d" stroke="#f7f2e7" stroke-width="2.6" paint-order="stroke" stroke-linejoin="round">蘅芜苑</text>
<text x="-119.3" y="-144.6" font-size="7.5" fill="#2f5d8c" stroke="#f7f2e7" stroke-width="2.2" paint-order="stroke">B级·信度高</text>
<text x="20.6" y="-185.1" font-size="11" fill="#33291d" stroke="#f7f2e7" stroke-width="2.6" paint-order="stroke" stroke-linejoin="round">省亲别墅牌坊与大观楼</text>
<text x="20.6" y="-175.1" font-size="7.5" fill="#b8352c" stroke="#f7f2e7" stroke-width="2.2" paint-order="stroke">A级·信度高</text>
<text x="110.8" y="166.4" font-size="11" fill="#33291d" stroke="#f7f2e7" stroke-width="2.6" paint-order="stroke" stroke-linejoin="round">怡红院</text>
<text x="110.8" y="176.4" font-size="7.5" fill="#2f5d8c" stroke="#f7f2e7" stroke-width="2.2" paint-order="stroke">B级·信度中</text>
<text x="63.3" y="-63.5" font-size="11" fill="#33291d" stroke="#f7f2e7" stroke-width="2.6" paint-order="stroke" stroke-linejoin="round">藕香榭</text>
<text x="63.3" y="-53.5" font-size="7.5" fill="#4e7a52" stroke="#f7f2e7" stroke-width="2.2" paint-order="stroke">C级·信度高</text>
<text x="-145.2" y="-102.8" font-size="11" fill="#33291d" stroke="#f7f2e7" stroke-width="2.6" paint-order="stroke" stroke-linejoin="round">紫菱洲</text>
<text x="-145.2" y="-92.8" font-size="7.5" fill="#2f5d8c" stroke="#f7f2e7" stroke-width="2.2" paint-order="stroke">B级·信度中</text>
<text x="-68.2" y="15.0" font-size="11" fill="#33291d" stroke="#f7f2e7" stroke-width="2.6" paint-order="stroke" stroke-linejoin="round">秋爽斋</text>
<text x="-68.2" y="25.0" font-size="7.5" fill="#2f5d8c" stroke="#f7f2e7" stroke-width="2.2" paint-order="stroke">B级·信度中</text>
<text x="202.4" y="149.1" font-size="11" fill="#33291d" stroke="#f7f2e7" stroke-width="2.6" paint-order="stroke" stroke-linejoin="round">栊翠庵</text>
<text x="202.4" y="159.1" font-size="7.5" fill="#2f5d8c" stroke="#f7f2e7" stroke-width="2.2" paint-order="stroke">B级·信度中</text>
<text x="178.8" y="39.0" font-size="11" fill="#33291d" stroke="#f7f2e7" stroke-width="2.6" paint-order="stroke" stroke-linejoin="round">凸碧堂凹晶馆</text>
<text x="178.8" y="49.0" font-size="7.5" fill="#4e7a52" stroke="#f7f2e7" stroke-width="2.2" paint-order="stroke">C级·信度高</text>
<text x="178.3" y="-45.2" font-size="11" fill="#33291d" stroke="#f7f2e7" stroke-width="2.6" paint-order="stroke" stroke-linejoin="round">暖香坞蓼风轩</text>
<text x="178.3" y="-35.2" font-size="7.5" fill="#2f5d8c" stroke="#f7f2e7" stroke-width="2.2" paint-order="stroke">B级·信度高</text>
<text x="172.8" y="-212.9" font-size="11" fill="#33291d" stroke="#f7f2e7" stroke-width="2.6" paint-order="stroke" stroke-linejoin="round">沁芳闸</text>
<text x="172.8" y="-202.9" font-size="7.5" fill="#4e7a52" stroke="#f7f2e7" stroke-width="2.2" paint-order="stroke">C级·信度高</text>
<text x="-38.2" y="-77.6" font-size="11" fill="#33291d" stroke="#f7f2e7" stroke-width="2.6" paint-order="stroke" stroke-linejoin="round">蓼汀花溆</text>
<text x="-38.2" y="-67.6" font-size="7.5" fill="#4e7a52" stroke="#f7f2e7" stroke-width="2.2" paint-order="stroke">C级·信度高</text>
<text x="106.9" y="27.3" font-size="11" fill="#33291d" stroke="#f7f2e7" stroke-width="2.6" paint-order="stroke" stroke-linejoin="round">芦雪广</text>
<text x="106.9" y="37.3" font-size="7.5" fill="#4e7a52" stroke="#f7f2e7" stroke-width="2.2" paint-order="stroke">C级·信度中</text>
<text x="112.3" y="119.3" font-size="11" fill="#33291d" stroke="#f7f2e7" stroke-width="2.6" paint-order="stroke" stroke-linejoin="round">嘉荫堂</text>
<text x="112.3" y="129.3" font-size="7.5" fill="#4e7a52" stroke="#f7f2e7" stroke-width="2.2" paint-order="stroke">C级·信度中</text>
<text x="-198.2" y="-145.2" font-size="11" fill="#33291d" stroke="#f7f2e7" stroke-width="2.6" paint-order="stroke" stroke-linejoin="round">花架花圃群</text>
<text x="-198.2" y="-135.2" font-size="7.5" fill="#4e7a52" stroke="#f7f2e7" stroke-width="2.2" paint-order="stroke">C级·信度低</text>
</g>
<!-- 游线站次 -->
<g>
<g><title>1·14. 正门</title><rect x="40.0" y="221.5" width="30.0" height="17" rx="8.5" fill="#c2562f" stroke="#f7f2e7" stroke-width="1.6"/><text x="55.0" y="233.4" font-size="9.5" text-anchor="middle" fill="#fff" font-weight="bold">1·14</text></g>
<g><title>2. 翠嶂(曲径通幽处)</title><rect x="-48.5" y="187.5" width="17.0" height="17" rx="8.5" fill="#c2562f" stroke="#f7f2e7" stroke-width="1.6"/><text x="-40.0" y="199.4" font-size="9.5" text-anchor="middle" fill="#fff" font-weight="bold">2</text></g>
<g><title>3. 沁芳亭桥与池</title><rect x="-12.5" y="169.5" width="17.0" height="17" rx="8.5" fill="#c2562f" stroke="#f7f2e7" stroke-width="1.6"/><text x="-4.0" y="181.4" font-size="9.5" text-anchor="middle" fill="#fff" font-weight="bold">3</text></g>
<g><title>4. 潇湘馆(有凤来仪)</title><rect x="-108.5" y="113.5" width="17.0" height="17" rx="8.5" fill="#c2562f" stroke="#f7f2e7" stroke-width="1.6"/><text x="-100.0" y="125.4" font-size="9.5" text-anchor="middle" fill="#fff" font-weight="bold">4</text></g>
<g><title>5. 稻香村(杏帘在望/浣葛山庄)</title><rect x="-204.5" y="-26.5" width="17.0" height="17" rx="8.5" fill="#c2562f" stroke="#f7f2e7" stroke-width="1.6"/><text x="-196.0" y="-14.6" font-size="9.5" text-anchor="middle" fill="#fff" font-weight="bold">5</text></g>
<g><title>6. 花架花圃群(荼蘼架·木香棚·牡丹亭·芍药圃·蔷薇院·芭蕉坞)</title><rect x="-212.5" y="-118.5" width="17.0" height="17" rx="8.5" fill="#c2562f" stroke="#f7f2e7" stroke-width="1.6"/><text x="-204.0" y="-106.6" font-size="9.5" text-anchor="middle" fill="#fff" font-weight="bold">6</text></g>
<g><title>7. 蓼汀花溆(萝港石洞)</title><rect x="-42.5" y="-108.5" width="17.0" height="17" rx="8.5" fill="#c2562f" stroke="#f7f2e7" stroke-width="1.6"/><text x="-34.0" y="-96.6" font-size="9.5" text-anchor="middle" fill="#fff" font-weight="bold">7</text></g>
<g><title>8. 蘅芜苑(蘅芷清芬)</title><rect x="-120.5" y="-135.5" width="17.0" height="17" rx="8.5" fill="#c2562f" stroke="#f7f2e7" stroke-width="1.6"/><text x="-112.0" y="-123.6" font-size="9.5" text-anchor="middle" fill="#fff" font-weight="bold">8</text></g>
<g><title>9. 省亲别墅牌坊与大观楼</title><rect x="16.5" y="-150.5" width="17.0" height="17" rx="8.5" fill="#c2562f" stroke="#f7f2e7" stroke-width="1.6"/><text x="25.0" y="-138.6" font-size="9.5" text-anchor="middle" fill="#fff" font-weight="bold">9</text></g>
<g><title>10. 沁芳闸</title><rect x="187.5" y="-196.5" width="17.0" height="17" rx="8.5" fill="#c2562f" stroke="#f7f2e7" stroke-width="1.6"/><text x="196.0" y="-184.6" font-size="9.5" text-anchor="middle" fill="#fff" font-weight="bold">10</text></g>
<g><title>11. 栊翠庵</title><rect x="197.5" y="165.5" width="17.0" height="17" rx="8.5" fill="#c2562f" stroke="#f7f2e7" stroke-width="1.6"/><text x="206.0" y="177.4" font-size="9.5" text-anchor="middle" fill="#fff" font-weight="bold">11</text></g>
<g><title>12. 怡红院(红香绿玉/怡红快绿)</title><rect x="103.5" y="181.5" width="17.0" height="17" rx="8.5" fill="#c2562f" stroke="#f7f2e7" stroke-width="1.6"/><text x="112.0" y="193.4" font-size="9.5" text-anchor="middle" fill="#fff" font-weight="bold">12</text></g>
<g><title>13. 翠嶂(曲径通幽处)</title><rect x="65.5" y="193.5" width="17.0" height="17" rx="8.5" fill="#c2562f" stroke="#f7f2e7" stroke-width="1.6"/><text x="74.0" y="205.4" font-size="9.5" text-anchor="middle" fill="#fff" font-weight="bold">13</text></g>
</g>
<rect x="320.0" y="-340.0" width="300.0" height="325.5" rx="5" fill="#fffdf7" stroke="#c9bda2" stroke-width="1.2"/>
<text x="332.0" y="-318.0" font-size="13" fill="#33291d" letter-spacing="1">景区索引(19 区)</text>
<text x="332.0" y="-304.0" font-size="8.5" fill="#7a6e5c">序号 = 十七回游线站次;× = 不在游线上</text>
<rect x="332.0" y="-294.0" width="7" height="7" fill="#b8352c" fill-opacity="0.25" stroke="#b8352c" stroke-width="1" stroke-dasharray="none"/>
<text x="360.0" y="-288.0" font-size="8.5" fill="#c2562f" text-anchor="end">1·14</text>
<text x="366.0" y="-288.0" font-size="9.5" fill="#33291d">正门</text>
<rect x="332.0" y="-279.5" width="7" height="7" fill="#4e7a52" fill-opacity="0.25" stroke="#4e7a52" stroke-width="1" stroke-dasharray="none"/>
<text x="360.0" y="-273.5" font-size="8.5" fill="#c2562f" text-anchor="end">2·13</text>
<text x="366.0" y="-273.5" font-size="9.5" fill="#33291d">翠嶂(曲径通幽处)</text>
<rect x="332.0" y="-265.0" width="7" height="7" fill="#4e7a52" fill-opacity="0.25" stroke="#4e7a52" stroke-width="1" stroke-dasharray="none"/>
<text x="360.0" y="-259.0" font-size="8.5" fill="#c2562f" text-anchor="end">3</text>
<text x="366.0" y="-259.0" font-size="9.5" fill="#33291d">沁芳亭桥与池</text>
<rect x="332.0" y="-250.5" width="7" height="7" fill="#2f5d8c" fill-opacity="0.25" stroke="#2f5d8c" stroke-width="1" stroke-dasharray="7 5"/>
<text x="360.0" y="-244.5" font-size="8.5" fill="#c2562f" text-anchor="end">4</text>
<text x="366.0" y="-244.5" font-size="9.5" fill="#33291d">潇湘馆(有凤来仪)</text>
<rect x="332.0" y="-236.0" width="7" height="7" fill="#2f5d8c" fill-opacity="0.25" stroke="#2f5d8c" stroke-width="1" stroke-dasharray="7 5"/>
<text x="360.0" y="-230.0" font-size="8.5" fill="#c2562f" text-anchor="end">5</text>
<text x="366.0" y="-230.0" font-size="9.5" fill="#33291d">稻香村(杏帘在望/浣葛山庄)</text>
<rect x="332.0" y="-221.5" width="7" height="7" fill="#2f5d8c" fill-opacity="0.25" stroke="#2f5d8c" stroke-width="1" stroke-dasharray="none"/>
<text x="360.0" y="-215.5" font-size="8.5" fill="#c2562f" text-anchor="end">8</text>
<text x="366.0" y="-215.5" font-size="9.5" fill="#33291d">蘅芜苑(蘅芷清芬)</text>
<rect x="332.0" y="-207.0" width="7" height="7" fill="#b8352c" fill-opacity="0.25" stroke="#b8352c" stroke-width="1" stroke-dasharray="none"/>
<text x="360.0" y="-201.0" font-size="8.5" fill="#c2562f" text-anchor="end">9</text>
<text x="366.0" y="-201.0" font-size="9.5" fill="#33291d">省亲别墅牌坊与大观楼</text>
<rect x="332.0" y="-192.5" width="7" height="7" fill="#2f5d8c" fill-opacity="0.25" stroke="#2f5d8c" stroke-width="1" stroke-dasharray="7 5"/>
<text x="360.0" y="-186.5" font-size="8.5" fill="#c2562f" text-anchor="end">12</text>
<text x="366.0" y="-186.5" font-size="9.5" fill="#33291d">怡红院(红香绿玉/怡红快绿)</text>
<rect x="332.0" y="-178.0" width="7" height="7" fill="#4e7a52" fill-opacity="0.25" stroke="#4e7a52" stroke-width="1" stroke-dasharray="none"/>
<text x="360.0" y="-172.0" font-size="8.5" fill="#7a6e5c" text-anchor="end">×</text>
<text x="366.0" y="-172.0" font-size="9.5" fill="#33291d">藕香榭</text>
<rect x="332.0" y="-163.5" width="7" height="7" fill="#2f5d8c" fill-opacity="0.25" stroke="#2f5d8c" stroke-width="1" stroke-dasharray="7 5"/>
<text x="360.0" y="-157.5" font-size="8.5" fill="#7a6e5c" text-anchor="end">×</text>
<text x="366.0" y="-157.5" font-size="9.5" fill="#33291d">紫菱洲(缀锦楼·荇叶渚·蓼溆)</text>
<rect x="332.0" y="-149.0" width="7" height="7" fill="#2f5d8c" fill-opacity="0.25" stroke="#2f5d8c" stroke-width="1" stroke-dasharray="7 5"/>
<text x="360.0" y="-143.0" font-size="8.5" fill="#7a6e5c" text-anchor="end">×</text>
<text x="366.0" y="-143.0" font-size="9.5" fill="#33291d">秋爽斋(晓翠堂)</text>
<rect x="332.0" y="-134.5" width="7" height="7" fill="#2f5d8c" fill-opacity="0.25" stroke="#2f5d8c" stroke-width="1" stroke-dasharray="7 5"/>
<text x="360.0" y="-128.5" font-size="8.5" fill="#c2562f" text-anchor="end">11</text>
<text x="366.0" y="-128.5" font-size="9.5" fill="#33291d">栊翠庵</text>
<rect x="332.0" y="-120.0" width="7" height="7" fill="#4e7a52" fill-opacity="0.25" stroke="#4e7a52" stroke-width="1" stroke-dasharray="none"/>
<text x="360.0" y="-114.0" font-size="8.5" fill="#7a6e5c" text-anchor="end">×</text>
<text x="366.0" y="-114.0" font-size="9.5" fill="#33291d">凸碧堂凹晶馆</text>
<rect x="332.0" y="-105.5" width="7" height="7" fill="#2f5d8c" fill-opacity="0.25" stroke="#2f5d8c" stroke-width="1" stroke-dasharray="none"/>
<text x="360.0" y="-99.5" font-size="8.5" fill="#7a6e5c" text-anchor="end">×</text>
<text x="366.0" y="-99.5" font-size="9.5" fill="#33291d">暖香坞蓼风轩</text>
<rect x="332.0" y="-91.0" width="7" height="7" fill="#4e7a52" fill-opacity="0.25" stroke="#4e7a52" stroke-width="1" stroke-dasharray="none"/>
<text x="360.0" y="-85.0" font-size="8.5" fill="#c2562f" text-anchor="end">10</text>
<text x="366.0" y="-85.0" font-size="9.5" fill="#33291d">沁芳闸</text>
<rect x="332.0" y="-76.5" width="7" height="7" fill="#4e7a52" fill-opacity="0.25" stroke="#4e7a52" stroke-width="1" stroke-dasharray="none"/>
<text x="360.0" y="-70.5" font-size="8.5" fill="#c2562f" text-anchor="end">7</text>
<text x="366.0" y="-70.5" font-size="9.5" fill="#33291d">蓼汀花溆(萝港石洞)</text>
<rect x="332.0" y="-62.0" width="7" height="7" fill="#4e7a52" fill-opacity="0.25" stroke="#4e7a52" stroke-width="1" stroke-dasharray="7 5"/>
<text x="360.0" y="-56.0" font-size="8.5" fill="#7a6e5c" text-anchor="end">×</text>
<text x="366.0" y="-56.0" font-size="9.5" fill="#33291d">芦雪广(芦雪庵)</text>
<rect x="332.0" y="-47.5" width="7" height="7" fill="#4e7a52" fill-opacity="0.25" stroke="#4e7a52" stroke-width="1" stroke-dasharray="7 5"/>
<text x="360.0" y="-41.5" font-size="8.5" fill="#7a6e5c" text-anchor="end">×</text>
<text x="366.0" y="-41.5" font-size="9.5" fill="#33291d">嘉荫堂</text>
<rect x="332.0" y="-33.0" width="7" height="7" fill="#4e7a52" fill-opacity="0.25" stroke="#4e7a52" stroke-width="1" stroke-dasharray="2 4"/>
<text x="360.0" y="-27.0" font-size="8.5" fill="#c2562f" text-anchor="end">6</text>
<text x="366.0" y="-27.0" font-size="9.5" fill="#33291d">花架花圃群(荼蘼架·木香棚·牡丹亭·芍药圃·蔷薇院…</text>
<rect x="320.0" y="5.5" width="300.0" height="252.0" rx="5" fill="#fffdf7" stroke="#c9bda2" stroke-width="1.2"/>
<text x="332.0" y="27.5" font-size="13" fill="#33291d" letter-spacing="1">图例</text>
<line x1="332.0" y1="45.5" x2="366.0" y2="45.5" stroke="#4a3a26" stroke-width="5"/>
<text x="374.0" y="49.0" font-size="9.5" fill="#33291d">园墙(折线包络;实测周长 1896 m,目标 2016 m)</text>
<rect x="332.0" y="57.0" width="34" height="10" fill="#b9dde2" stroke="#6fa3ac" stroke-width="1.2"/>
<text x="374.0" y="65.5" font-size="9.5" fill="#33291d">水面 / 溪渠(三级:池 40–80 m,溪 8–15 m,沟 0.3–2.5 m)</text>
<rect x="332.0" y="73.5" width="34" height="10" fill="#dccaa4" stroke="#a98f61" stroke-width="1.2"/>
<rect x="332.0" y="73.5" width="34" height="10" fill="url(#hillhatch)"/>
<text x="374.0" y="82.0" font-size="9.5" fill="#33291d">堆山(注高程 m)</text>
<line x1="332.0" y1="95.0" x2="366.0" y2="95.0" stroke="#b3a68c" stroke-width="2.6" stroke-dasharray="10 6"/>
<text x="374.0" y="98.5" font-size="9.5" fill="#33291d">园路 / 盘道 / 甬路</text>
<line x1="332.0" y1="111.5" x2="362.0" y2="111.5" stroke="#c2562f" stroke-width="3.4" marker-end="url(#ah)"/>
<circle cx="346.0" cy="111.5" r="6" fill="#c2562f" stroke="#f7f2e7" stroke-width="1.4"/>
<text x="374.0" y="115.0" font-size="9.5" fill="#33291d">十七回游线(环线,①→⑭)</text>
<rect x="332.0" y="122.5" width="34" height="11" fill="#b8352c" fill-opacity="0.2" stroke="#b8352c" stroke-width="2"/>
<text x="374.0" y="131.5" font-size="9.5" fill="#33291d">A 级 — 一等·礼制主体</text>
<rect x="332.0" y="139.0" width="34" height="11" fill="#2f5d8c" fill-opacity="0.2" stroke="#2f5d8c" stroke-width="2"/>
<text x="374.0" y="148.0" font-size="9.5" fill="#33291d">B 级 — 二等·居住院落</text>
<rect x="332.0" y="155.5" width="34" height="11" fill="#4e7a52" fill-opacity="0.2" stroke="#4e7a52" stroke-width="2"/>
<text x="374.0" y="164.5" font-size="9.5" fill="#33291d">C 级 — 三等·园林点景</text>
<rect x="332.0" y="172.0" width="34" height="11" fill="none" stroke="#7a6e5c" stroke-width="2" stroke-dasharray="none"/>
<text x="374.0" y="181.0" font-size="9.5" fill="#33291d">信度高(L1 原文明证)</text>
<rect x="332.0" y="188.5" width="34" height="11" fill="none" stroke="#7a6e5c" stroke-width="2" stroke-dasharray="7 5"/>
<text x="374.0" y="197.5" font-size="9.5" fill="#33291d">信度中(L2 共识)</text>
<rect x="332.0" y="205.0" width="34" height="11" fill="none" stroke="#7a6e5c" stroke-width="2" stroke-dasharray="2 4"/>
<text x="374.0" y="214.0" font-size="9.5" fill="#33291d">信度低(L4 推测,可改)</text>
<rect x="344.0" y="222.5" width="9" height="9" fill="#f7f2e7" stroke="#4a3a26" stroke-width="1.2" transform="rotate(45 348.5 227.0)"/>
<circle cx="348.5" cy="227.0" r="2" fill="#4a3a26"/>
<text x="374.0" y="230.5" font-size="9.5" fill="#33291d">园门(6 处;正门朱标)</text>
<circle cx="348.5" cy="243.5" r="2.6" fill="#f7f2e7" stroke="#7a6e5c" stroke-width="0.9"/>
<text x="374.0" y="247.0" font-size="9.5" fill="#33291d">景区出入口(entrances)</text>
<g>
<line x1="332.0" y1="287.5" x2="532.0" y2="287.5" stroke="#33291d" stroke-width="2"/>
<line x1="332.0" y1="281.5" x2="332.0" y2="293.5" stroke="#33291d" stroke-width="2"/>
<line x1="382.0" y1="281.5" x2="382.0" y2="293.5" stroke="#33291d" stroke-width="2"/>
<line x1="432.0" y1="281.5" x2="432.0" y2="293.5" stroke="#33291d" stroke-width="2"/>
<line x1="482.0" y1="281.5" x2="482.0" y2="293.5" stroke="#33291d" stroke-width="2"/>
<line x1="532.0" y1="281.5" x2="532.0" y2="293.5" stroke="#33291d" stroke-width="2"/>
<rect x="332.0" y="281.5" width="50" height="6" fill="#33291d"/>
<rect x="382.0" y="281.5" width="50" height="6" fill="none" stroke="#33291d" stroke-width="0.8"/>
<rect x="432.0" y="281.5" width="50" height="6" fill="#33291d"/>
<rect x="482.0" y="281.5" width="50" height="6" fill="none" stroke="#33291d" stroke-width="0.8"/>
<text x="332.0" y="305.5" font-size="9" text-anchor="middle" fill="#33291d">0</text>
<text x="382.0" y="305.5" font-size="9" text-anchor="middle" fill="#33291d">50</text>
<text x="432.0" y="305.5" font-size="9" text-anchor="middle" fill="#33291d">100</text>
<text x="482.0" y="305.5" font-size="9" text-anchor="middle" fill="#33291d">150</text>
<text x="532.0" y="305.5" font-size="9" text-anchor="middle" fill="#33291d">200 m</text>
<text x="332.0" y="321.5" font-size="8.5" fill="#7a6e5c">1 svg 单位 = 1 m(世界坐标直出:svg x = x,svg y = z)</text>
<text x="332.0" y="334.5" font-size="8.5" fill="#7a6e5c">图上实测:墙内 23.4 ha · 水面 3.05 ha(13.0%)· 游线全长 1691 m</text>
<text x="332.0" y="347.5" font-size="8.5" fill="#7a6e5c">至正殿累计路程 51.3%(约束 6 要求 50–62%,通过)</text>
</g>
</svg>